<mxfile host="app.diagrams.net" modified="2023-07-13T21:43:41.073Z" agent="Mozilla/5.0 (Macintosh; Intel Mac OS X 10_15_7) AppleWebKit/537.36 (KHTML, like Gecko) Chrome/114.0.0.0 Safari/537.36" etag="FkLVHQHG068ifoWhB1oD" version="21.5.2" type="device">
  <diagram name="Page-1" id="1aH7VWo8NEERykn1JH1z">
    <mxGraphModel dx="838" dy="550" grid="1" gridSize="10" guides="1" tooltips="1" connect="1" arrows="1" fold="1" page="1" pageScale="1" pageWidth="1100" pageHeight="850" math="0" shadow="0">
      <root>
        <mxCell id="0" />
        <mxCell id="1" parent="0" />
        <mxCell id="oGB6CN06Xmh-bsSJnLjn-5" value="" style="edgeStyle=orthogonalEdgeStyle;rounded=0;orthogonalLoop=1;jettySize=auto;html=1;fillColor=#6a00ff;strokeColor=#3700CC;strokeWidth=4;" edge="1" parent="1" source="oGB6CN06Xmh-bsSJnLjn-2" target="oGB6CN06Xmh-bsSJnLjn-4">
          <mxGeometry relative="1" as="geometry" />
        </mxCell>
        <mxCell id="oGB6CN06Xmh-bsSJnLjn-2" value="&lt;b&gt;Hospital&lt;br&gt;admissions&lt;/b&gt;" style="shape=hexagon;perimeter=hexagonPerimeter2;whiteSpace=wrap;html=1;fixedSize=1;fillColor=#6a00ff;fontColor=#ffffff;strokeColor=#3700CC;strokeWidth=1;" vertex="1" parent="1">
          <mxGeometry x="250" y="155" width="125" height="80" as="geometry" />
        </mxCell>
        <mxCell id="oGB6CN06Xmh-bsSJnLjn-4" value="&lt;b&gt;% Occupancy&lt;/b&gt;" style="shape=hexagon;perimeter=hexagonPerimeter2;whiteSpace=wrap;html=1;fixedSize=1;fillColor=#6a00ff;fontColor=#ffffff;strokeColor=#3700CC;" vertex="1" parent="1">
          <mxGeometry x="455" y="155" width="120" height="80" as="geometry" />
        </mxCell>
        <mxCell id="oGB6CN06Xmh-bsSJnLjn-10" style="edgeStyle=orthogonalEdgeStyle;rounded=0;orthogonalLoop=1;jettySize=auto;html=1;entryX=0.5;entryY=0;entryDx=0;entryDy=0;fillColor=#a20025;strokeColor=#6F0000;strokeWidth=8;" edge="1" parent="1" target="oGB6CN06Xmh-bsSJnLjn-4">
          <mxGeometry relative="1" as="geometry">
            <mxPoint x="460" y="60" as="sourcePoint" />
          </mxGeometry>
        </mxCell>
        <mxCell id="oGB6CN06Xmh-bsSJnLjn-11" style="edgeStyle=orthogonalEdgeStyle;rounded=0;orthogonalLoop=1;jettySize=auto;html=1;fillColor=#a20025;strokeColor=#6F0000;strokeWidth=8;" edge="1" parent="1" source="oGB6CN06Xmh-bsSJnLjn-9">
          <mxGeometry relative="1" as="geometry">
            <mxPoint x="680" y="260" as="targetPoint" />
          </mxGeometry>
        </mxCell>
        <mxCell id="oGB6CN06Xmh-bsSJnLjn-12" style="edgeStyle=orthogonalEdgeStyle;rounded=0;orthogonalLoop=1;jettySize=auto;html=1;entryX=0.5;entryY=0;entryDx=0;entryDy=0;fillColor=#a20025;strokeColor=#6F0000;strokeWidth=8;" edge="1" parent="1" source="oGB6CN06Xmh-bsSJnLjn-9" target="oGB6CN06Xmh-bsSJnLjn-2">
          <mxGeometry relative="1" as="geometry" />
        </mxCell>
        <mxCell id="oGB6CN06Xmh-bsSJnLjn-9" value="&lt;font style=&quot;font-size: 14px;&quot;&gt;COVID&lt;/font&gt;" style="ellipse;whiteSpace=wrap;html=1;aspect=fixed;fillColor=#a20025;fontColor=#ffffff;strokeColor=#6F0000;" vertex="1" parent="1">
          <mxGeometry x="420" y="10" width="80" height="80" as="geometry" />
        </mxCell>
        <mxCell id="oGB6CN06Xmh-bsSJnLjn-18" value="" style="edgeStyle=orthogonalEdgeStyle;rounded=0;orthogonalLoop=1;jettySize=auto;html=1;fillColor=#60a917;strokeColor=#2D7600;strokeWidth=4;" edge="1" parent="1" source="oGB6CN06Xmh-bsSJnLjn-15" target="oGB6CN06Xmh-bsSJnLjn-17">
          <mxGeometry relative="1" as="geometry" />
        </mxCell>
        <mxCell id="oGB6CN06Xmh-bsSJnLjn-15" value="&lt;b&gt;A&amp;amp;E &lt;br&gt;attendances&lt;/b&gt;" style="shape=hexagon;perimeter=hexagonPerimeter2;whiteSpace=wrap;html=1;fixedSize=1;fillColor=#60a917;fontColor=#ffffff;strokeColor=#2D7600;" vertex="1" parent="1">
          <mxGeometry x="90" y="300" width="125" height="70" as="geometry" />
        </mxCell>
        <mxCell id="oGB6CN06Xmh-bsSJnLjn-19" value="" style="edgeStyle=orthogonalEdgeStyle;rounded=0;orthogonalLoop=1;jettySize=auto;html=1;fillColor=#60a917;strokeColor=#2D7600;strokeWidth=4;" edge="1" parent="1" source="oGB6CN06Xmh-bsSJnLjn-17" target="oGB6CN06Xmh-bsSJnLjn-2">
          <mxGeometry relative="1" as="geometry" />
        </mxCell>
        <mxCell id="oGB6CN06Xmh-bsSJnLjn-17" value="A&amp;amp;E wait times" style="rhombus;whiteSpace=wrap;html=1;fillColor=#60a917;strokeColor=#2D7600;fontColor=#ffffff;" vertex="1" parent="1">
          <mxGeometry x="251.25" y="292.5" width="122.5" height="85" as="geometry" />
        </mxCell>
        <mxCell id="oGB6CN06Xmh-bsSJnLjn-22" value="" style="edgeStyle=orthogonalEdgeStyle;rounded=0;orthogonalLoop=1;jettySize=auto;html=1;fillColor=#6a00ff;strokeColor=#3700CC;strokeWidth=4;" edge="1" parent="1" source="oGB6CN06Xmh-bsSJnLjn-21" target="oGB6CN06Xmh-bsSJnLjn-2">
          <mxGeometry relative="1" as="geometry" />
        </mxCell>
        <mxCell id="oGB6CN06Xmh-bsSJnLjn-21" value="Treatment &lt;br&gt;wait times" style="rhombus;whiteSpace=wrap;html=1;fillColor=#6a00ff;strokeColor=#3700CC;fontColor=#ffffff;" vertex="1" parent="1">
          <mxGeometry x="90" y="152.5" width="122.5" height="85" as="geometry" />
        </mxCell>
        <mxCell id="oGB6CN06Xmh-bsSJnLjn-27" value="" style="edgeStyle=orthogonalEdgeStyle;rounded=0;orthogonalLoop=1;jettySize=auto;html=1;fillColor=#6a00ff;strokeColor=#3700CC;strokeWidth=4;" edge="1" parent="1" source="oGB6CN06Xmh-bsSJnLjn-23" target="oGB6CN06Xmh-bsSJnLjn-4">
          <mxGeometry relative="1" as="geometry" />
        </mxCell>
        <mxCell id="oGB6CN06Xmh-bsSJnLjn-23" value="Length&lt;br&gt;of stay" style="rhombus;whiteSpace=wrap;html=1;fillColor=#6a00ff;strokeColor=#3700CC;fontColor=#ffffff;" vertex="1" parent="1">
          <mxGeometry x="453.75" y="280" width="122.5" height="85" as="geometry" />
        </mxCell>
        <mxCell id="oGB6CN06Xmh-bsSJnLjn-26" style="edgeStyle=orthogonalEdgeStyle;rounded=0;orthogonalLoop=1;jettySize=auto;html=1;entryX=1;entryY=0.5;entryDx=0;entryDy=0;fillColor=#6a00ff;strokeColor=#3700CC;strokeWidth=4;" edge="1" parent="1" source="oGB6CN06Xmh-bsSJnLjn-25" target="oGB6CN06Xmh-bsSJnLjn-4">
          <mxGeometry relative="1" as="geometry" />
        </mxCell>
        <mxCell id="oGB6CN06Xmh-bsSJnLjn-25" value="Delayed&lt;br&gt;discharges" style="rhombus;whiteSpace=wrap;html=1;fillColor=#6a00ff;strokeColor=#3700CC;fontColor=#ffffff;" vertex="1" parent="1">
          <mxGeometry x="555" y="230" width="122.5" height="85" as="geometry" />
        </mxCell>
      </root>
    </mxGraphModel>
  </diagram>
</mxfile>
